{"asset":{"version":"2.0","generator":"Blockbench 4.5.2 glTF exporter"},"scenes":[{"nodes":[17],"name":"blockbench_export"}],"scene":0,"nodes":[{"translation":[0.04035243429029438,0.4979214315512537,-0.06150029652982714],"name":"bone"},{"translation":[-0.04035243429029438,0.12707856844874632,0.21462529652982715],"name":"right_left","mesh":0},{"translation":[0.04035243429029438,0.4979214315512537,0.09787470347017285],"name":"right_leg","children":[1]},{"translation":[0,0,0.125],"name":"left_leg","mesh":1},{"translation":[0,0.5,0],"name":"left_leg","children":[3]},{"name":"sphere","mesh":2},{"translation":[0,0.5,0],"name":"head","children":[5]},{"name":"body","mesh":3},{"translation":[0,0.5,0],"name":"body","children":[7]},{"rotation":[-0.34202014332566877,0,0,0.9396926207859083],"name":"upper","mesh":4},{"rotation":[-0.06294654531326668,0.12344837361752922,0.5911526655734857,0.7945670251587807],"translation":[0.015625,0.015625,-0.015625],"name":"lower","mesh":5},{"translation":[-0.015625,-0.1875,0.140625],"name":"bone","children":[10]},{"rotation":[0.1736481776669303,0,0,0.984807753012208],"translation":[0,0.8125,0.1875],"name":"left_arm","children":[9,11]},{"rotation":[0.34202014332566877,0,0,0.9396926207859083],"name":"upper","mesh":6},{"rotation":[0.06294654531326668,-0.12344837361752922,0.5911526655734857,0.7945670251587807],"translation":[0.015625,0.015625,0.015625],"name":"lower","mesh":7},{"translation":[-0.015625,-0.1875,-0.140625],"name":"bone2","children":[14]},{"rotation":[-0.1736481776669303,0,0,0.984807753012208],"translation":[0,0.8125,-0.1875],"name":"left_arm2","children":[13,15]},{"children":[0,2,4,6,8,12,16]}],"bufferViews":[{"buffer":0,"byteOffset":0,"byteLength":960,"target":34962,"byteStride":12},{"buffer":0,"byteOffset":960,"byteLength":960,"target":34962,"byteStride":12},{"buffer":0,"byteOffset":1920,"byteLength":640,"target":34962,"byteStride":8},{"buffer":0,"byteOffset":2560,"byteLength":192,"target":34963},{"buffer":0,"byteOffset":2752,"byteLength":960,"target":34962,"byteStride":12},{"buffer":0,"byteOffset":3712,"byteLength":960,"target":34962,"byteStride":12},{"buffer":0,"byteOffset":4672,"byteLength":640,"target":34962,"byteStride":8},{"buffer":0,"byteOffset":5312,"byteLength":192,"target":34963},{"buffer":0,"byteOffset":5504,"byteLength":3168,"target":34962,"byteStride":12},{"buffer":0,"byteOffset":8672,"byteLength":3168,"target":34962,"byteStride":12},{"buffer":0,"byteOffset":11840,"byteLength":2112,"target":34962,"byteStride":8},{"buffer":0,"byteOffset":13952,"byteLength":720,"target":34963},{"buffer":0,"byteOffset":14672,"byteLength":1440,"target":34962,"byteStride":12},{"buffer":0,"byteOffset":16112,"byteLength":1440,"target":34962,"byteStride":12},{"buffer":0,"byteOffset":17552,"byteLength":960,"target":34962,"byteStride":8},{"buffer":0,"byteOffset":18512,"byteLength":288,"target":34963},{"buffer":0,"byteOffset":18800,"byteLength":4128,"target":34962,"byteStride":12},{"buffer":0,"byteOffset":22928,"byteLength":4128,"target":34962,"byteStride":12},{"buffer":0,"byteOffset":27056,"byteLength":2752,"target":34962,"byteStride":8},{"buffer":0,"byteOffset":29808,"byteLength":912,"target":34963},{"buffer":0,"byteOffset":30720,"byteLength":4128,"target":34962,"byteStride":12},{"buffer":0,"byteOffset":34848,"byteLength":4128,"target":34962,"byteStride":12},{"buffer":0,"byteOffset":38976,"byteLength":2752,"target":34962,"byteStride":8},{"buffer":0,"byteOffset":41728,"byteLength":912,"target":34963},{"buffer":0,"byteOffset":42640,"byteLength":4128,"target":34962,"byteStride":12},{"buffer":0,"byteOffset":46768,"byteLength":4128,"target":34962,"byteStride":12},{"buffer":0,"byteOffset":50896,"byteLength":2752,"target":34962,"byteStride":8},{"buffer":0,"byteOffset":53648,"byteLength":912,"target":34963},{"buffer":0,"byteOffset":54560,"byteLength":4128,"target":34962,"byteStride":12},{"buffer":0,"byteOffset":58688,"byteLength":4128,"target":34962,"byteStride":12},{"buffer":0,"byteOffset":62816,"byteLength":2752,"target":34962,"byteStride":8},{"buffer":0,"byteOffset":65568,"byteLength":912,"target":34963},{"buffer":0,"byteOffset":66480,"byteLength":20},{"buffer":0,"byteOffset":66500,"byteLength":80},{"buffer":0,"byteOffset":66580,"byteLength":20},{"buffer":0,"byteOffset":66600,"byteLength":80},{"buffer":0,"byteOffset":66680,"byteLength":20},{"buffer":0,"byteOffset":66700,"byteLength":80},{"buffer":0,"byteOffset":66780,"byteLength":4},{"buffer":0,"byteOffset":66784,"byteLength":16},{"buffer":0,"byteOffset":66800,"byteLength":20},{"buffer":0,"byteOffset":66820,"byteLength":80}],"buffers":[{"byteLength":66900,"uri":"data:application/octet-stream;base64,"}],"accessors":[{"bufferView":0,"componentType":5126,"count":80,"max":[0.02812499925494194,-0.125,-0.40937501192092896],"min":[-0.02812499925494194,-0.625,-0.46562498807907104],"type":"VEC3"},{"bufferView":1,"componentType":5126,"count":80,"max":[1,1,1],"min":[-1,-1,-1],"type":"VEC3"},{"bufferView":2,"componentType":5126,"count":80,"max":[0.44453126192092896,1],"min":[0,0.546875],"type":"VEC2"},{"bufferView":3,"componentType":5123,"count":96,"max":[79],"min":[0],"type":"SCALAR"},{"bufferView":4,"componentType":5126,"count":80,"max":[0.02812499925494194,0,0.02812499925494194],"min":[-0.02812499925494194,-0.5,-0.02812499925494194],"type":"VEC3"},{"bufferView":5,"componentType":5126,"count":80,"max":[1,1,1],"min":[-1,-1,-1],"type":"VEC3"},{"bufferView":6,"componentType":5126,"count":80,"max":[0.44453126192092896,1],"min":[0,0.546875],"type":"VEC2"},{"bufferView":7,"componentType":5123,"count":96,"max":[79],"min":[0],"type":"SCALAR"},{"bufferView":8,"componentType":5126,"count":264,"max":[0.1875,0.75,0.1875],"min":[-0.1875,0.375,-0.1875],"type":"VEC3"},{"bufferView":9,"componentType":5126,"count":264,"max":[0.9659258127212524,0.9659258127212524,0.9659258127212524],"min":[-0.9659258127212524,-0.9659258127212524,-0.9659258127212524],"type":"VEC3"},{"bufferView":10,"componentType":5126,"count":264,"max":[0.421875,1],"min":[0,0.5686864852905273],"type":"VEC2"},{"bufferView":11,"componentType":5123,"count":360,"max":[263],"min":[0],"type":"SCALAR"},{"bufferView":12,"componentType":5126,"count":120,"max":[0.1875,0.375,0.1875],"min":[-0.1875,-0.125,-0.1875],"type":"VEC3"},{"bufferView":13,"componentType":5126,"count":120,"max":[1,1,1],"min":[-1,-1,-1],"type":"VEC3"},{"bufferView":14,"componentType":5126,"count":120,"max":[0.25,1],"min":[0,0.75],"type":"VEC2"},{"bufferView":15,"componentType":5123,"count":144,"max":[119],"min":[0],"type":"SCALAR"},{"bufferView":16,"componentType":5126,"count":344,"max":[0.03125,0.046875,0.016051677986979485],"min":[-0.03125,-0.24278758466243744,-0.0454988069832325],"type":"VEC3"},{"bufferView":17,"componentType":5126,"count":344,"max":[1,1,1],"min":[-1,-1,-1],"type":"VEC3"},{"bufferView":18,"componentType":5126,"count":344,"max":[0.515625,1],"min":[0,0.484375],"type":"VEC2"},{"bufferView":19,"componentType":5123,"count":456,"max":[343],"min":[0],"type":"SCALAR"},{"bufferView":20,"componentType":5126,"count":344,"max":[0.02778029255568981,-0.011791519820690155,0.034414298832416534],"min":[-0.03471970558166504,-0.176454097032547,-0.02713618613779545],"type":"VEC3"},{"bufferView":21,"componentType":5126,"count":344,"max":[1,1,1],"min":[-1,-1,-1],"type":"VEC3"},{"bufferView":22,"componentType":5126,"count":344,"max":[0.515625,1],"min":[0.078125,0.484375],"type":"VEC2"},{"bufferView":23,"componentType":5123,"count":456,"max":[343],"min":[0],"type":"SCALAR"},{"bufferView":24,"componentType":5126,"count":344,"max":[0.03125,0.046875,0.0454988069832325],"min":[-0.03125,-0.24278758466243744,-0.016051677986979485],"type":"VEC3"},{"bufferView":25,"componentType":5126,"count":344,"max":[1,1,1],"min":[-1,-1,-1],"type":"VEC3"},{"bufferView":26,"componentType":5126,"count":344,"max":[0.515625,1],"min":[0.015625,0.484375],"type":"VEC2"},{"bufferView":27,"componentType":5123,"count":456,"max":[343],"min":[0],"type":"SCALAR"},{"bufferView":28,"componentType":5126,"count":344,"max":[0.02778029255568981,-0.011791519820690155,0.02713618613779545],"min":[-0.03471970558166504,-0.176454097032547,-0.034414298832416534],"type":"VEC3"},{"bufferView":29,"componentType":5126,"count":344,"max":[1,1,1],"min":[-1,-1,-1],"type":"VEC3"},{"bufferView":30,"componentType":5126,"count":344,"max":[0.515625,0.90625],"min":[0,0.484375],"type":"VEC2"},{"bufferView":31,"componentType":5123,"count":456,"max":[343],"min":[0],"type":"SCALAR"},{"bufferView":32,"componentType":5126,"count":5,"max":[2],"min":[0],"type":"SCALAR"},{"bufferView":33,"componentType":5126,"count":5,"max":[0,0,0.15212339162826538,1],"min":[0,0,-0.13052618503570557,0.9883615374565125],"type":"VEC4"},{"bufferView":34,"componentType":5126,"count":5,"max":[2],"min":[0],"type":"SCALAR"},{"bufferView":35,"componentType":5126,"count":5,"max":[0,0,0.10886687785387039,1],"min":[0,0,-0.08715574443340302,0.9940563440322876],"type":"VEC4"},{"bufferView":36,"componentType":5126,"count":5,"max":[2],"min":[0],"type":"SCALAR"},{"bufferView":37,"componentType":5126,"count":5,"max":[0.1736481785774231,0.04859180003404617,0.2755777835845947,0.9848077297210693],"min":[0.16671091318130493,-0.04859180003404617,-0.2755777835845947,0.945464551448822],"type":"VEC4"},{"bufferView":38,"componentType":5126,"count":1,"max":[0.9583333134651184],"min":[0.9583333134651184],"type":"SCALAR"},{"bufferView":39,"componentType":5126,"count":1,"max":[-0.5726748108863831,-0.009376967325806618,-0.35829848051071167,0.7372773289680481],"min":[-0.5726748108863831,-0.009376967325806618,-0.35829848051071167,0.7372773289680481],"type":"VEC4"},{"bufferView":40,"componentType":5126,"count":5,"max":[2],"min":[0],"type":"SCALAR"},{"bufferView":41,"componentType":5126,"count":5,"max":[0.007486084010452032,0.2789294421672821,0.2755777835845947,0.9848077297210693],"min":[-0.1736481785774231,-0.04859180003404617,-0.25930124521255493,0.9246108531951904],"type":"VEC4"}],"materials":[{"pbrMetallicRoughness":{"metallicFactor":0,"roughnessFactor":1,"baseColorTexture":{"index":0}},"alphaMode":"MASK","alphaCutoff":0.05,"doubleSided":true}],"textures":[{"sampler":0,"source":0,"name":"texture.png"}],"samplers":[{"magFilter":9728,"minFilter":9728,"wrapS":33071,"wrapT":33071}],"images":[{"mimeType":"image/png","uri":"data:image/png;base64,"}],"meshes":[{"primitives":[{"mode":4,"attributes":{"POSITION":0,"NORMAL":1,"TEXCOORD_0":2},"indices":3,"material":0}]},{"primitives":[{"mode":4,"attributes":{"POSITION":4,"NORMAL":5,"TEXCOORD_0":6},"indices":7,"material":0}]},{"primitives":[{"mode":4,"attributes":{"POSITION":8,"NORMAL":9,"TEXCOORD_0":10},"indices":11,"material":0}]},{"primitives":[{"mode":4,"attributes":{"POSITION":12,"NORMAL":13,"TEXCOORD_0":14},"indices":15,"material":0}]},{"primitives":[{"mode":4,"attributes":{"POSITION":16,"NORMAL":17,"TEXCOORD_0":18},"indices":19,"material":0}]},{"primitives":[{"mode":4,"attributes":{"POSITION":20,"NORMAL":21,"TEXCOORD_0":22},"indices":23,"material":0}]},{"primitives":[{"mode":4,"attributes":{"POSITION":24,"NORMAL":25,"TEXCOORD_0":26},"indices":27,"material":0}]},{"primitives":[{"mode":4,"attributes":{"POSITION":28,"NORMAL":29,"TEXCOORD_0":30},"indices":31,"material":0}]}],"animations":[{"name":"walk.witch.new","samplers":[{"input":32,"output":33,"interpolation":"LINEAR"},{"input":34,"output":35,"interpolation":"LINEAR"},{"input":36,"output":37,"interpolation":"LINEAR"},{"input":38,"output":39,"interpolation":"LINEAR"},{"input":40,"output":41,"interpolation":"LINEAR"}],"channels":[{"sampler":0,"target":{"node":2,"path":"rotation"}},{"sampler":1,"target":{"node":4,"path":"rotation"}},{"sampler":2,"target":{"node":12,"path":"rotation"}},{"sampler":3,"target":{"node":11,"path":"rotation"}},{"sampler":4,"target":{"node":16,"path":"rotation"}}]}]}