{"accessors" : [{"bufferView" : 0, "byteOffset" : 0, "componentType" : 5123, "count" : 318, "type" : "SCALAR", "max" : [264], "min" : [0]}, {"bufferView" : 1, "byteOffset" : 0, "componentType" : 5126, "count" : 265, "type" : "VEC3", "max" : [2.635650157928467, 4.600461006164551, 1], "min" : [0, -0.34153223037719727, -1], "name" : "POSITION"}, {"bufferView" : 1, "byteOffset" : 12, "componentType" : 5126, "count" : 265, "type" : "VEC2", "max" : [0.75, 1], "min" : [0.125, 0], "name" : "TEXCOORD_0"}, {"bufferView" : 1, "byteOffset" : 20, "componentType" : 5126, "count" : 265, "type" : "VEC3", "max" : [1.0000044107437134, 1.0000044107437134, 1.0000044107437134], "min" : [-1.0000044107437134, -1.0000044107437134, -1.0000044107437134], "name" : "NORMAL"}], "asset" : {"generator" : "Aspose.3D 22.10", "version" : "2.0"}, "buffers" : [{"uri" : "data:application/octet-stream;base64,", "byteLength" : 10820}], "bufferViews" : [{"buffer" : 0, "byteOffset" : 0, "byteLength" : 636, "target" : 34963}, {"buffer" : 0, "byteOffset" : 640, "byteLength" : 10176, "byteStride" : 32, "target" : 34962}], "meshes" : [{"primitives" : [{"attributes" : {"POSITION" : 1, "TEXCOORD_0" : 2, "NORMAL" : 3}, "indices" : 0, "mode" : 4}]}], "nodes" : [{"mesh" : 0, "name" : "Cube"}, {"children" : [0], "matrix" : [1, 0, 0, 0, 0, 1, 0, 0, 0, 0, 1, 0, 0, 0.7555961608886719, 0, 1], "name" : "Armature"}], "scene" : 0, "scenes" : [{"nodes" : [1]}]}